{
	"asset":{
		"version":"2.0",
		"generator":"Maxon Cinema 4D 2024.1.0 (#200000219)"
	},
	"scenes":[{
		"nodes":[0]
	}],
	"nodes":[{
		"scale":[1.0,
		1.0,
		1.0],
		"name":"InVida-logo19.pdf",
		"translation":[0.0,
		0.041339144110679629,
		0.0],
		"rotation":[0.0,
		0.0,
		0.0,
		-1.0],
		"children":[1]
	},
	{
		"scale":[1.0,
		1.0,
		1.0],
		"name":"Null",
		"translation":[-0.07454030215740204,
		-0.04743019491434097,
		0.0],
		"rotation":[0.0,
		0.0,
		0.0,
		-1.0],
		"children":[2,
		3]
	},
	{
		"name":"Fill",
		"mesh":0
	},
	{
		"name":"Fill",
		"mesh":1
	}],
	"meshes":[{
		"name":"Fill",
		"primitives":[{
			"attributes":{
				"POSITION":1,
				"NORMAL":2,
				"TEXCOORD_0":3
			},
			"indices":0,
			"material":0
		}]
	},
	{
		"name":"Fill",
		"primitives":[{
			"attributes":{
				"POSITION":5,
				"NORMAL":6,
				"TEXCOORD_0":7
			},
			"indices":4,
			"material":0
		}]
	}],
	"accessors":[{
		"bufferView":0,
		"type":"SCALAR",
		"max":[1631],
		"componentType":5123,
		"count":1632,
		"byteOffset":0,
		"min":[0]
	},
	{
		"bufferView":1,
		"type":"VEC3",
		"max":[0.09259118139743805,
		0.03994717821478844,
		0.00006702777318423614],
		"componentType":5126,
		"count":1632,
		"byteOffset":0,
		"min":[0.056507658213377,
		0.03196064382791519,
		-0.0034607499837875368]
	},
	{
		"bufferView":1,
		"type":"VEC3",
		"max":[1.0,
		1.0,
		1.0],
		"componentType":5126,
		"count":1632,
		"byteOffset":12,
		"min":[-1.0,
		-1.0,
		-1.0]
	},
	{
		"bufferView":1,
		"type":"VEC2",
		"max":[1.0,
		1.0],
		"componentType":5126,
		"count":1632,
		"byteOffset":24,
		"min":[0.0,
		0.0]
	},
	{
		"bufferView":2,
		"type":"SCALAR",
		"max":[1067],
		"componentType":5123,
		"count":1068,
		"byteOffset":0,
		"min":[0]
	},
	{
		"bufferView":3,
		"type":"VEC3",
		"max":[0.09147689491510391,
		0.08169931173324585,
		0.00006349999603116885],
		"componentType":5126,
		"count":1068,
		"byteOffset":0,
		"min":[0.05762213468551636,
		0.046035945415496829,
		-0.00346427783370018]
	},
	{
		"bufferView":3,
		"type":"VEC3",
		"max":[0.9999836683273315,
		1.0,
		1.0],
		"componentType":5126,
		"count":1068,
		"byteOffset":12,
		"min":[-0.9999829530715942,
		-1.0,
		-1.0]
	},
	{
		"bufferView":3,
		"type":"VEC2",
		"max":[1.0,
		1.0],
		"componentType":5126,
		"count":1068,
		"byteOffset":24,
		"min":[0.0,
		0.0]
	}],
	"bufferViews":[{
		"buffer":0,
		"byteOffset":0,
		"byteLength":3264,
		"target":34963
	},
	{
		"buffer":0,
		"byteOffset":3264,
		"byteLength":52224,
		"target":34962,
		"byteStride":32
	},
	{
		"buffer":1,
		"byteOffset":0,
		"byteLength":2136,
		"target":34963
	},
	{
		"buffer":1,
		"byteOffset":2136,
		"byteLength":34176,
		"target":34962,
		"byteStride":32
	}],
	"buffers":[{
		"uri":"data:application/octet-stream;base64,",
		"byteLength":55488
	},
	{
		"uri":"data:application/octet-stream;base64,",
		"byteLength":36312
	}],
	"materials":[{
		"pbrMetallicRoughness":{
			"baseColorFactor":[1.0,
			1.0,
			1.0,
			0.0],
			"metallicFactor":1.0,
			"roughnessFactor":1.0
		},
		"emissiveFactor":[0.0,
		0.0,
		0.0],
		"alphaMode":"BLEND",
		"doubleSided":false,
		"name":"Glass"
	}]
}